inDegrees=no
num_controls=7
num_derivatives=13
num_iterations=109
num_multipliers=7
num_parameters=0
num_slacks=7
num_states=26
objective=0.445695
objective_accelerations=0.057014
objective_balance=0.003617
objective_effort=0.022992
objective_height=0.356497
objective_ligament=0.005575
solver_duration=1465.000711
status=Solve_Succeeded
success=true
DataType=double
version=3
OpenSimVersion=4.5
endheader
time	/jointset/ground_pelvis/pelvis_tilt/value	/jointset/ground_pelvis/pelvis_tx/value	/jointset/ground_pelvis/pelvis_ty/value	/jointset/hip_l/hip_flexion_l/value	/jointset/hip_l/hip_adduction_l/value	/jointset/hip_l/hip_rotation_l/value	/jointset/back/lumbar_extension/value	/jointset/patellofemoral_l/patellar_flexion_l/value	/jointset/knee_l/knee_flexion_l/value	/jointset/knee_l/knee_adduction_l/value	/jointset/knee_l/knee_rotation_l/value	/jointset/ankle_l/ankle_angle_l/value	/jointset/subtalar_l/subtalar_angle_l/value	/jointset/ground_pelvis/pelvis_tilt/speed	/jointset/ground_pelvis/pelvis_tx/speed	/jointset/ground_pelvis/pelvis_ty/speed	/jointset/hip_l/hip_flexion_l/speed	/jointset/hip_l/hip_adduction_l/speed	/jointset/hip_l/hip_rotation_l/speed	/jointset/back/lumbar_extension/speed	/jointset/patellofemoral_l/patellar_flexion_l/speed	/jointset/knee_l/knee_flexion_l/speed	/jointset/knee_l/knee_adduction_l/speed	/jointset/knee_l/knee_rotation_l/speed	/jointset/ankle_l/ankle_angle_l/speed	/jointset/subtalar_l/subtalar_angle_l/speed	/forceset/tau_hip_flexion_l	/forceset/tau_hip_adduction_l	/forceset/tau_hip_rotation_l	/forceset/tau_knee_flexion_l	/forceset/tau_ankle_angle_l	/forceset/tau_subtalar_angle_l	/forceset/tau_lumbar_extension	lambda_cid13_p0	lambda_cid13_p1	lambda_cid13_p2	lambda_cid13_p3	lambda_cid13_p4	lambda_cid13_p5	lambda_cid14_p0	/jointset/ground_pelvis/pelvis_tilt/accel	/jointset/ground_pelvis/pelvis_tx/accel	/jointset/ground_pelvis/pelvis_ty/accel	/jointset/hip_l/hip_flexion_l/accel	/jointset/hip_l/hip_adduction_l/accel	/jointset/hip_l/hip_rotation_l/accel	/jointset/back/lumbar_extension/accel	/jointset/patellofemoral_l/patellar_flexion_l/accel	/jointset/knee_l/knee_flexion_l/accel	/jointset/knee_l/knee_adduction_l/accel	/jointset/knee_l/knee_rotation_l/accel	/jointset/ankle_l/ankle_angle_l/accel	/jointset/subtalar_l/subtalar_angle_l/accel	gamma_cid13_p0	gamma_cid13_p1	gamma_cid13_p2	gamma_cid13_p3	gamma_cid13_p4	gamma_cid13_p5	gamma_cid14_p0
1	-0.5556813628508527	-0.08467453263066352	0.5756669655341558	1.838152553160508	-0.4682903664900714	0.01340446341609187	-0.2617941469253077	1.372745126143784	1.372745126144471	-0.09160369764111777	-0.1745291049365919	0.2098990559762736	-0.01715167199864106	-0.01726464114924608	0.01075662172257332	0.002603741284957588	-0.00165354192844671	-0.002331742077215303	0.003383808713551113	-1.327350478618204e-05	0.001817231676849355	0.001817231676849434	-0.005011923595350288	-3.020088577205388e-05	0.02070153785787875	0.008935686318337915	-0.3366975205803353	0.01395853923447107	-0.0002916852090952457	-0.2994806595003743	0.04213051569917812	0.03222156791724111	0.2867268866800677	-26.41044652588341	-10.22108726664253	2.266264967255138	6.684460503736023	-642.541512103341	-47.12005650535773	-1.692100206315757	1.564676183570002	0.2665408408863941	1.960447887362699	-6.855251337223419	-0.08657801143093891	-2.354753465678057	-0.02214681997570201	-5.256924802968562	-5.256924802968555	-0.5748188939111888	-0.03226186510863953	-0.6414214714157386	-0.4433759829747276	4.690857265466576e-09	1.737260401739591e-08	-1.404510179832067e-08	2.488301419298987e-09	-1.724025433184302e-09	2.268727661023425e-08	2.49291781871461e-09
1.01	-0.5557767440567259	-0.08455369575575371	0.5757908701432765	1.837794617854388	-0.4683169462018861	0.01331932054591528	-0.2617943266651832	1.372500597043081	1.372500597043953	-0.09167963493629186	-0.1745297226485732	0.2100741800143227	-0.01708301069867343	-0.00181146107521985	0.01341328960482684	0.02217262790432992	-0.06992277848528121	-0.002977091740284953	-0.02040342907393203	-2.060631162861998e-05	-0.05071894184397715	-0.0507189418439768	-0.01017389830380707	-8.470455113378078e-05	0.01431861195880365	0.004802504125596156	-0.336601518076952	0.01406684470627411	-0.0003097241587706804	-0.299310136537525	0.04196509342245526	0.03224203143300107	0.286657358927841	-26.44958266369234	-10.22715374829121	2.271837212344234	6.618816094939399	-642.3868921386646	-47.12957642486142	-1.697712864421184	1.535658613027594	0.2656110408891814	1.954423755001042	-6.811150084937011	-0.05244865019631048	-2.389371560660334	0.01028371282209729	-5.251345225106582	-5.251345225106543	-0.4866442043105877	0.009259519445822826	-0.6374259835343726	-0.3974051568225255	-3.043309257092513e-09	1.065644386819647e-08	3.092676254510097e-08	4.119535554371305e-09	-1.189228231511642e-08	7.347064464693932e-08	-9.407531908471387e-09
1.02	-0.5557175895231171	-0.08440621594622244	0.576110326559746	1.836754312128694	-0.4683497664516217	0.01299657277278583	-0.2617945176883566	1.371730829887477	1.371730829888533	-0.09180714346755221	-0.1745306245698633	0.2101853352265047	-0.01705550438451293	0.01364250674715199	0.01608520864686094	0.04171410275476001	-0.1381276258430576	-0.003579849661406513	-0.04413717187649133	-1.553016404760785e-05	-0.1032303793034798	-0.1032303793034792	-0.01532617081217078	-8.704274866486338e-05	0.007907772684489008	0.0007046891569090604	-0.3365055155735742	0.01417515017807159	-0.0003277631084416964	-0.2991396135746759	0.04179967114573125	0.03226249494875326	0.2865878311756097	-26.49451565719449	-10.23223342072583	2.27728433956169	6.574126693863641	-642.3138520584793	-47.11692597896249	-1.714802220312602	1.564833733239131	0.2695910728425031	1.954965533574254	-6.842373497411804	-0.07805966304129439	-2.344054468693262	-0.01966502909099979	-5.251977590703803	-5.251977590703802	-0.5728784538925634	-0.02182877154245957	-0.6470041464636567	-0.436302538163767	-1.192778607806545e-08	9.853106320441514e-10	7.394951992394886e-08	5.343603170760786e-09	-2.266318264629161e-08	1.235469559575692e-07	-2.193669371706553e-08
1.03	-0.5555038580870004	-0.08423191676145259	0.5766249897894187	1.835032411756724	-0.468388373290998	0.01243677033239707	-0.2617946203166767	1.37043612255369	1.370436122554414	-0.09198611688374818	-0.1745313535932657	0.210232129176324	-0.01706882510547957	0.02910649763113434	0.01877946187969015	0.0612069212328816	-0.2062278761112805	-0.004130599094479478	-0.06781252354348372	-4.603744421031992e-06	-0.1557022087749726	-0.1557022087749705	-0.0204647829666384	-5.481445719578197e-05	0.001435236856485393	-0.003364144217357921	-0.336102455893618	0.01433454234906266	-0.0003807114818305981	-0.298844831722246	0.0416883526141707	0.03235323744598143	0.2863052180252326	-26.50291262106769	-10.28198890988184	2.298713741807446	6.475604996610773	-641.9489327272966	-47.17757016575843	-1.743570791864927	1.537585759408931	0.270068804441468	1.944689959541967	-6.790169163930702	-0.0419550066803374	-2.377678026075717	0.01153024086419263	-5.243446853169874	-5.243446853169636	-0.4838055370450166	0.01637037050399135	-0.6497450360369696	-0.3914827411354724	-2.082400075922628e-08	-8.71597539070975e-09	1.169523884562195e-07	6.563516026755542e-09	-3.344023240041825e-08	1.736160524036472e-07	-3.447227095506181e-08
1.04	-0.5551354059433576	-0.08403052977316673	0.5773342311947948	1.83263024520759	-0.4684321621093531	0.01164053387326181	-0.261794601928128	1.368616964679629	1.36861696468002	-0.09221636700965466	-0.1745316359854639	0.2102137244208496	-0.01712269596100431	0.04458664825236146	0.02150276935005959	0.08062973789543323	-0.2741808612756302	-0.004616245457153078	-0.09142397562541625	8.673210192584959e-06	-0.2081204873583805	-0.2081204873583763	-0.02558151275395253	2.283474769447597e-06	-0.005131968374248968	-0.00740533775471757	-0.335699396213666	0.01449393452005008	-0.0004336598552092548	-0.2985500498698163	0.04157703408260936	0.03244397994320437	0.2860226048748518	-26.51716027501166	-10.3307738675339	2.320049973335212	6.398194900323866	-641.6662143842112	-47.2165676036904	-1.784284761503374	1.568065680688094	0.2754019203505315	1.940965170460267	-6.812920476637156	-0.0650390489613592	-2.331274551681231	-0.01919492209358943	-5.241267413086869	-5.241267413086707	-0.5685019804618414	-0.01685484344311115	-0.6659380270098233	-0.4307745707822326	-2.636335265110995e-08	-9.75335066340048e-09	1.626994310134776e-07	1.007352544339682e-08	-4.217128916133569e-08	2.18005030762642e-07	-4.400534872304614e-08
1.05	-0.5546120280022879	-0.08380174303555407	0.5782372800149785	1.829549457185351	-0.46848013350392	0.01060893721144366	-0.2617944699099667	1.366273975833204	1.366273975833808	-0.0924975496323556	-0.1745306441286079	0.2101291698517024	-0.01721640331697033	0.06009466545064281	0.02426137160400088	0.0999613167609887	-0.3419336189168492	-0.004930364671837962	-0.1148407210011248	1.637685404013323e-05	-0.2604604110277158	-0.2604604110277134	-0.03063583807932876	0.0002618927233089055	-0.0117946727124297	-0.01128506379861261	-0.3350031975442696	0.01475540081588778	-0.000517177564062465	-0.2981148911991178	0.04152391678645011	0.03259523946615724	0.2855359573201866	-26.49325821020379	-10.41988200839418	2.356222702882562	6.256189052103116	-641.090236650472	-47.31762683211551	-1.83738498088918	1.543023242274946	0.2771111598779992	1.926437582312684	-6.749991108851218	-0.007469703265364025	-2.338712567316108	0.01054997242306129	-5.227813424719711	-5.22781342472009	-0.4710391949704248	0.05729066706348022	-0.6687939695013261	-0.3589342391332161	-3.179780258082872e-08	-1.051997872515178e-08	2.085322290090166e-07	1.36551003775583e-08	-5.083840864121536e-08	2.622165054314155e-07	-5.344459838259262e-08
1.06	-0.5539333991886599	-0.08354516591900958	0.5793330812913599	1.825792434046502	-0.4685298203597425	0.009344805488505456	-0.2617943014624091	1.363408096033915	1.36340809603473	-0.0928287037855916	-0.1745250718076023	0.2099775167727174	-0.0173473804569633	0.07563682276399457	0.02706084513643178	0.1191802291349204	-0.4094278845975465	-0.004959337708255097	-0.1379309878488527	1.595908985177102e-05	-0.3126986779315655	-0.3126986779315657	-0.0355758188605023	0.0009183762942861026	-0.01855167034177571	-0.01485929456011256	-0.3343069988748797	0.01501686711171907	-0.0006006952729124445	-0.2976797325284194	0.04147079949028969	0.03274649898910124	0.2850493097655158	-26.47526076006737	-10.50796375282349	2.392240379905144	6.135406533686576	-640.5973118764496	-47.3982126317622	-1.903333520647369	1.574893703702171	0.2835761760484662	1.918431872135518	-6.761222084532838	-0.008009813307878064	-2.26597884608516	-0.02081920370078048	-5.220936059989749	-5.22093605998972	-0.5456330716213311	0.0625200210443034	-0.6847966852428693	-0.3696755143032931	-3.963354610249687e-08	-1.864577604503842e-08	2.50138869888417e-07	1.514719499491624e-08	-6.07202786306232e-08	3.059072511920531e-07	-6.458437830479169e-08
1.07	-0.5530991506568239	-0.08326035333036509	0.5806204263604111	1.821361911191884	-0.4685784104025659	0.007851408109478365	-0.2617941717206443	1.360020445936718	1.360020445937468	-0.09320872427974243	-0.1745111261961489	0.2097577415850172	-0.01751266634187926	0.09121935129724423	0.02991185975587619	0.1382618209048333	-0.4766166313792303	-0.004711921929533699	-0.1606931403434767	1.129086839245842e-05	-0.3648045299930182	-0.364804529993022	-0.04040855838909146	0.001925013149206896	-0.02542634852446753	-0.01815196491002699	-0.3332878271946867	0.01530580198755328	-0.0007191372509423587	-0.2971228499130066	0.04152181977474659	0.03296238087510895	0.2843423371493733	-26.40280762520828	-10.64152803544354	2.444512575752738	5.932490036618142	-639.7892267253935	-47.54550247293429	-1.98275751481556	1.550895115822305	0.2873955045664544	1.89896398983027	-6.688701604372704	0.04809924423389727	-2.273079173358194	0.009904609386506827	-5.201372730268394	-5.201372730268956	-0.4491615830866827	0.1279466343062377	-0.6922490229435103	-0.3022052453878993	-4.759701800671554e-08	-2.716301853823017e-08	2.915207151765335e-07	1.652814704223143e-08	-7.066676300883573e-08	3.495702986065132e-07	-7.58146119643659e-08
1.08	-0.5521088843021179	-0.08294672431559133	0.5820977755792437	1.816261300743572	-0.4686231298934474	0.006132040061063914	-0.2617940496129434	1.356112544728698	1.356112544729381	-0.09363648560710099	-0.1744854719928106	0.2094685304878579	-0.01770950742030483	0.1068403873379303	0.03282413036228702	0.157181059091188	-0.5434454033363764	-0.004185227319942927	-0.1831251217263884	1.443227713248026e-05	-0.4167489000962858	-0.4167489000962937	-0.04512398550203977	0.003260094667738222	-0.03243885223360644	-0.02117033326203705	-0.3322686555144894	0.01559473686338962	-0.0008375792289532431	-0.2965659672975943	0.04157284005920314	0.03317826276111888	0.2836353645332351	-26.3362917432685	-10.77395576812371	2.496492871206876	5.750807981505671	-639.0649458161379	-47.6741318635572	-2.07633995303711	1.582595205189461	0.2958273734417512	1.885961155423877	-6.689227119625303	0.04784595286597677	-2.19994462374271	-0.01925727766092886	-5.188639668352706	-5.188639668352782	-0.5221705884931688	0.1282089537663711	-0.7123617905322907	-0.3148151147224428	-5.478266172565336e-08	-3.517386790641585e-08	3.306527641398613e-07	1.802294925731194e-08	-8.003056631428121e-08	3.87908736422471e-07	-8.590872410214598e-08
